<svg width="83" height="79" fill="none" xmlns="http://www.w3.org/2000/svg"><g filter="url(#a)" fill="#83B3D3"><path d="M74.55 47.2H8.75c-2.3 0-4.1 1.9-4.1 4.3V55c0 2.4 1.9 4.3 4.1 4.3h.9v1.1c0 5.5 4.3 10.1 9.6 10.1h44.6c5.3 0 9.6-4.5 9.6-10.1v-1.1h.9c2.3 0 4.1-1.9 4.1-4.3v-3.5a4 4 0 0 0-3.9-4.3Zm-3.9 13.2c0 3.9-3 7-6.7 7h-44.7c-3.7 0-6.7-3.2-6.7-7v-1.1h58.1v1.1Zm5.1-5.4c0 .7-.6 1.3-1.2 1.3H8.65c-.7 0-1.2-.6-1.2-1.3v-3.5c0-.7.6-1.3 1.2-1.3h65.8c.7 0 1.2.6 1.2 1.3.1 0 .1 3.5.1 3.5ZM20.25 38.9l5.4 4.1 5.3-4.1 5.3 4.1 5.3-4.1 5.4 4.1 5.3-4.1 5.3 4.1 5.4-4.1 5.3 4.1 6.2-4.7-1.7-2.5-4.5 3.4-5.3-4.1-5.4 4.1-5.3-4.1-5.3 4.1-5.4-4.1-5.3 4.1-5.3-4.1-5.3 4.1-5.4-4.1-5.3 4.1-4.5-3.4-1.7 2.5 6.2 4.7 5.3-4.1ZM12.65 32h60.8c0-.6.1-1.2.1-1.9v-1.2C72.85 13.2 58.85.5 41.65.5c-17.3 0-31.3 12.7-32 28.5v1.2c0 .6 0 1.3.1 1.9h2.9V32Zm29-28.5c15.6 0 28.4 11.3 29 25.5h-58c.6-14.1 13.4-25.5 29-25.5Z"/><path d="M41.65 17.8c1.05 0 1.9-.9 1.9-2s-.85-2-1.9-2c-1.05 0-1.9.9-1.9 2s.85 2 1.9 2ZM33.85 12.7c1.05 0 1.9-.9 1.9-2s-.85-2-1.9-2c-1.05 0-1.9.9-1.9 2s.85 2 1.9 2ZM49.35 12.7c1.05 0 1.9-.9 1.9-2s-.85-2-1.9-2c-1.05 0-1.9.9-1.9 2s.85 2 1.9 2Z"/></g><defs><filter id="a" x=".65" y=".5" width="81.81" height="78" filterUnits="userSpaceOnUse" color-interpolation-filters="sRGB"><feFlood flood-opacity="0" result="BackgroundImageFix"/><feColorMatrix in="SourceAlpha" values="0 0 0 0 0 0 0 0 0 0 0 0 0 0 0 0 0 0 127 0" result="hardAlpha"/><feOffset dy="4"/><feGaussianBlur stdDeviation="2"/><feComposite in2="hardAlpha" operator="out"/><feColorMatrix values="0 0 0 0 0 0 0 0 0 0 0 0 0 0 0 0 0 0 0.25 0"/><feBlend in2="BackgroundImageFix" result="effect1_dropShadow_38903_59"/><feBlend in="SourceGraphic" in2="effect1_dropShadow_38903_59" result="shape"/></filter></defs></svg>