<svg width="19" height="17" viewBox="0 0 19 17" fill="none" xmlns="http://www.w3.org/2000/svg"><path d="M9.577 17c-.301 0-.602-.1-.803-.4-5.415-6.1-6.719-7.5-7.02-7.9C1.052 7.8.651 6.6.651 5.4c0-3 2.407-5.4 5.516-5.4 1.304 0 2.507.5 3.51 1.3C10.68.5 11.983 0 13.187 0c3.008 0 5.516 2.4 5.516 5.4 0 1.3-.502 2.5-1.304 3.4l-7.02 7.9c-.2.2-.401.3-.802.3ZM3.56 7.5c.3.4 3.51 4 6.117 6.9l6.218-7c.5-.5.701-1.2.701-2 0-1.8-1.504-3.3-3.309-3.3-1.003 0-2.006.5-2.708 1.3-.3.3-.601.4-.902.4-.3 0-.602-.2-.802-.4-.702-.8-1.705-1.3-2.708-1.3-1.805 0-3.31 1.5-3.31 3.3-.1.9.301 1.6.703 2.1-.1 0-.1 0 0 0Z" fill="#000"/></svg>